<svg xmlns="http://www.w3.org/2000/svg" viewBox="0 0 32 32" fill="none">
  <rect width="32" height="32" rx="8" fill="#fafaf9" />
  <path
    d="M7 8.5C7 7.67 7.67 7 8.5 7H14c.83 0 1.5.67 1.5 1.5v14c0 .28-.2.5-.5.5-2.5 0-4-1-5.5-1-1.3 0-2.5.45-2.5 1.1V8.5Z"
    fill="#7f1d1d"
  />
  <path
    d="M16 8.5c0-.83.67-1.5 1.5-1.5H23c.83 0 1.5.67 1.5 1.5v15.1c0-.65-1.2-1.1-2.5-1.1-1.5 0-3 1-5.5 1-.3 0-.5-.22-.5-.5v-14Z"
    fill="#991b1b"
  />
  <path
    d="M16.5 8c0 3.2-1.2 4.2-1.2 4.2S14 9.1 15.5 8H16Z"
    fill="url(#a)"
    opacity="0.35"
  />
  <defs>
    <linearGradient id="a" x1="16" y1="8" x2="16" y2="12" gradientUnits="userSpaceOnUse">
      <stop stop-color="#fef3c7" />
      <stop offset="1" stop-color="#fef3c7" stop-opacity="0" />
    </linearGradient>
  </defs>
</svg>
